<svg xmlns="http://www.w3.org/2000/svg" viewBox="0 0 141.44 162.76"><defs><style>.cls-1{fill:#42929d;}.cls-1,.cls-2{fill-rule:evenodd;}.cls-2{fill:#e77817;}</style></defs><title>Recurso 1</title><g id="Capa_2" data-name="Capa 2"><g id="Capa_1-2" data-name="Capa 1"><g id="Capa_1-3" data-name="Capa_1"><path class="cls-1" d="M133.41,157.77C-21.8,196.87-57-7.15,110.84,6.92l12-6.92h12.63V29.74h-6.57C39.61-44-25,162.6,127.37,154.75l6,3Z"/><path class="cls-1" d="M141.44,90.69q-1.42-2-2.85-3.81l-.72.94h0c1.19.89,2.38,1.84,3.58,2.87ZM137.93,86C117.49,60.07,95.58,52.61,72,66.38l.67.94.3.42.78,1.07.28.38.64.86.5.65.07.09.29.38.13.16.71.91.05.07.3.37.13.16.75.94h0l.3.36.54.65,0,.07.3.35.3.35.54.63.06.06.29.35.6.66.68.76.23.25.89,1,.11.12.19.2.73.75.32.32.87.87.12.12c.33.31.66.63,1,.93l.06.06h0c.73.68,1.46,1.34,2.19,2h0c.36.31.72.62,1.08.91l0,0c.71.58,1.42,1.13,2.13,1.66,14.3-10.82,29.41-11.69,45.49-.2h0l.3-.22h0l.08,0h0l0,0h0l0,0h0l0,0h0l.26-.2h0l0,0h0l.07,0,0,0h0l.28-.21,0,0ZM49.38,88.85l18.41,25.58c1.42-2.26,2.86-4.41,4.3-6.47m-1.37-.81,0,0c-1.59-1-3.18-2-4.79-3.19l-.11-.08-1-.76-.35-.26L63,101.77l0,0-.35-.28-.36-.28-.5-.41-1-.82-.62-.54-.95-.82-.44-.38-1.1-1-.54-.5c-.42-.39-.85-.78-1.27-1.19l-.23-.22-1.2-1.17-.57-.57-1.1-1.11-.29-.29-1.29-1.36-.28-.29-1.46-1.59,0,0,0,0,21.34,18.3Z"/><path class="cls-2" d="M141.16,83.43c-28.12,39-57.09,39.88-91.4.92L67.85,65.07c22.37,35.31,46.3,41.49,73.31,18.36Z"/></g></g></g></svg>