<svg xmlns="http://www.w3.org/2000/svg" viewBox="0 0 344.41 163.59"><defs><style>.cls-1,.cls-3{fill:#42929d;}.cls-1,.cls-2{fill-rule:evenodd;}.cls-2{fill:#e77817;}</style></defs><title>Logo</title><g id="Capa_2" data-name="Capa 2"><g id="Capa_1-2" data-name="Capa 1"><g id="Capa_1-3" data-name="Capa_1"><path class="cls-1" d="M133.41,157.77C-21.8,196.87-57-7.15,110.84,6.92l12-6.92h12.63V29.74h-6.57C39.61-44-25,162.6,127.37,154.75l6,3Z"/><path class="cls-1" d="M141.44,90.69q-1.42-2-2.85-3.81l-.72.94h0c1.19.89,2.38,1.84,3.58,2.87ZM137.93,86C117.49,60.07,95.58,52.61,72,66.38l.67.94.3.42.78,1.07.28.38.64.86.5.65.07.09.29.38.13.16.71.91.05.07.3.37.13.16.75.94h0l.3.36.54.65,0,.07.3.35.3.35.54.63.06.06.29.35.6.66.68.76.23.25.89,1,.11.12.19.2.73.75.32.32.87.87.12.12c.33.31.66.63,1,.93l.06.06h0c.73.68,1.46,1.34,2.19,2h0c.36.31.72.62,1.08.91l0,0c.71.58,1.42,1.13,2.13,1.66,14.3-10.82,29.41-11.69,45.49-.2h0l.3-.22h0l.08,0h0l0,0h0l0,0h0l0,0h0l.26-.2h0l0,0h0l.07,0,0,0h0l.28-.21,0,0ZM49.38,88.85l18.41,25.58c1.42-2.26,2.86-4.41,4.3-6.47m-1.37-.81,0,0c-1.59-1-3.18-2-4.79-3.19l-.11-.08-1-.76-.35-.26L63,101.77l0,0-.35-.28-.36-.28-.5-.41-1-.82-.62-.54-.95-.82-.44-.38-1.1-1-.54-.5c-.42-.39-.85-.78-1.27-1.19l-.23-.22-1.2-1.17-.57-.57-1.1-1.11-.29-.29-1.29-1.36-.28-.29-1.46-1.59,0,0,0,0,21.34,18.3Z"/><path class="cls-2" d="M141.16,83.43c-28.12,39-57.09,39.88-91.4.92L67.85,65.07c22.37,35.31,46.3,41.49,73.31,18.36Z"/><path class="cls-3" d="M197.52,32.47a13.77,13.77,0,0,1-9.94-4.23,15.13,15.13,0,0,1-3.13-5,17.76,17.76,0,0,1-1.17-6.66,18.77,18.77,0,0,1,1.15-6.74,15.65,15.65,0,0,1,3.18-5.2,13.83,13.83,0,0,1,4.74-3.34A14.77,14.77,0,0,1,198.2.11a14.42,14.42,0,0,1,4.2.57A15.83,15.83,0,0,1,206,2.27l.91-1.48h1.77l.19,11H207A25.63,25.63,0,0,0,206,8.33a13.12,13.12,0,0,0-1.65-3.2,8,8,0,0,0-2.52-2.32A6.54,6.54,0,0,0,198.47,2a8.62,8.62,0,0,0-4,.94,8.91,8.91,0,0,0-3.19,2.77,13.63,13.63,0,0,0-2,4.49,23.88,23.88,0,0,0-.72,6.09,18,18,0,0,0,.76,5.44,13.55,13.55,0,0,0,2.17,4.35A10.38,10.38,0,0,0,194.83,29,8.91,8.91,0,0,0,199.15,30a9.43,9.43,0,0,0,3.29-.56A8.94,8.94,0,0,0,205.05,28a11.9,11.9,0,0,0,3.31-4.85l1.65.79a13.57,13.57,0,0,1-5,6.58,13.77,13.77,0,0,1-7.46,2ZM242,31.75H228.92V30.2a12.76,12.76,0,0,0,2.86-.44c.76-.21,1.14-.48,1.14-.8a3.13,3.13,0,0,0,0-.48,2.14,2.14,0,0,0-.13-.5L230.14,21h-11c-.41,1-.74,1.9-1,2.66s-.49,1.45-.69,2.09a14.83,14.83,0,0,0-.4,1.53,5.85,5.85,0,0,0-.11,1c0,.58.46,1,1.39,1.36a11.41,11.41,0,0,0,3.14.56v1.55H209.69V30.2a9.2,9.2,0,0,0,1.43-.25,4.68,4.68,0,0,0,1.42-.55,5.73,5.73,0,0,0,1.36-1.24,7.79,7.79,0,0,0,.95-1.78q2.37-5.82,5.22-13.09c1.9-4.84,3.58-9.16,5.08-12.94h1.76l10.45,26.71a4.94,4.94,0,0,0,.74,1.38,5.35,5.35,0,0,0,1.18,1,4.43,4.43,0,0,0,1.32.51,6.48,6.48,0,0,0,1.37.23v1.55ZM229.34,19.1l-4.75-12-4.66,12Zm38.9,3.45-.66,9.2H243.09V30.2l1.54-.15a5,5,0,0,0,1.4-.29,1.87,1.87,0,0,0,1-.82,2.9,2.9,0,0,0,.3-1.4V5.37A3,3,0,0,0,247,4.06a1.86,1.86,0,0,0-1-.92,8.2,8.2,0,0,0-1.42-.51,9.12,9.12,0,0,0-1.52-.29V.79h13.23V2.34a8.94,8.94,0,0,0-1.6.22,10,10,0,0,0-1.42.35,1.61,1.61,0,0,0-1,.89A3.39,3.39,0,0,0,252,5.15V26a13.9,13.9,0,0,0,.14,2.23,2,2,0,0,0,.68,1.24,3,3,0,0,0,1.51.51,25.23,25.23,0,0,0,2.81.12c.55,0,1.12,0,1.7,0a14.83,14.83,0,0,0,1.69-.18,9.5,9.5,0,0,0,1.42-.36,2.31,2.31,0,0,0,1-.58,20.3,20.3,0,0,0,2.11-3,21.9,21.9,0,0,0,1.66-3.3Zm15.84,9.2H270V30.2l1.72-.13a6,6,0,0,0,1.6-.26,2.25,2.25,0,0,0,1.06-.78,2.4,2.4,0,0,0,.32-1.36V5.24A2.9,2.9,0,0,0,274.42,4a2,2,0,0,0-1.14-.86,12.36,12.36,0,0,0-1.67-.49A11.56,11.56,0,0,0,270,2.34V.79h14.12V2.34a14.26,14.26,0,0,0-1.64.16,11.9,11.9,0,0,0-1.66.36,1.75,1.75,0,0,0-1.12.85A2.83,2.83,0,0,0,279.37,5V27.43a2.59,2.59,0,0,0,.32,1.28,2.14,2.14,0,0,0,1.09.88,9.34,9.34,0,0,0,1.52.38,10.33,10.33,0,0,0,1.78.23v1.55Zm28.57-9.67-1,9.67H286.43V31L306.15,2.51h-7.22c-.84,0-1.54,0-2.1.05a9.93,9.93,0,0,0-1.56.17A6.51,6.51,0,0,0,292,5.11a15.44,15.44,0,0,0-2.75,4.43h-1.55l.95-8.75h23.47v.76L292.4,30h7.43a31.89,31.89,0,0,0,4-.27,5,5,0,0,0,2.75-.89,16.29,16.29,0,0,0,2.67-3.32,21.36,21.36,0,0,0,1.84-3.47Zm31.76,9.67h-13V30.2a12.76,12.76,0,0,0,2.85-.44c.77-.21,1.14-.48,1.14-.8a3,3,0,0,0,0-.48,2.12,2.12,0,0,0-.14-.5L332.58,21h-11c-.42,1-.75,1.9-1,2.66s-.49,1.45-.7,2.09-.32,1.14-.39,1.53a5.85,5.85,0,0,0-.11,1c0,.58.46,1,1.39,1.36a11.33,11.33,0,0,0,3.13.56v1.55H312.13V30.2a9.29,9.29,0,0,0,1.44-.25A4.61,4.61,0,0,0,315,29.4a5.79,5.79,0,0,0,1.37-1.24,8.2,8.2,0,0,0,.95-1.78q2.35-5.82,5.21-13.09T327.59.35h1.77L339.8,27.06a5.21,5.21,0,0,0,.75,1.38,5.28,5.28,0,0,0,1.17,1A4.55,4.55,0,0,0,343,30a6.48,6.48,0,0,0,1.37.23v1.55ZM331.78,19.1,327,7.09l-4.65,12ZM207,82.13l-7.6.48-.33-.3v-2l-.17,0a9,9,0,0,1-2.84,2.08,8,8,0,0,1-3.48.81,8.44,8.44,0,0,1-3.59-.82,9.09,9.09,0,0,1-3-2.3,11.54,11.54,0,0,1-2.07-3.62,14,14,0,0,1-.76-4.67,12.24,12.24,0,0,1,.82-4.44,11.76,11.76,0,0,1,2.25-3.66,10,10,0,0,1,3.3-2.34,9.74,9.74,0,0,1,4-.87,12,12,0,0,1,3,.38,10.77,10.77,0,0,1,2.53,1V54.29a4.28,4.28,0,0,0-.31-1.67,2.57,2.57,0,0,0-.86-1.15,4.64,4.64,0,0,0-1.67-.6c-.7-.12-1.45-.21-2.26-.27V49.25l8.89-.5.34.33v29a2.54,2.54,0,0,0,.3,1.31,2.57,2.57,0,0,0,.87.9,2.75,2.75,0,0,0,1.22.33l1.45.09v1.41Zm-8-3.78V65.77a5.54,5.54,0,0,0-.58-1.22,5.11,5.11,0,0,0-1-1.2,5.46,5.46,0,0,0-1.5-.91,5.19,5.19,0,0,0-2-.36,4.51,4.51,0,0,0-2.44.68,6.44,6.44,0,0,0-2,1.93,10,10,0,0,0-1.3,3.12,17,17,0,0,0-.47,4.18,14.86,14.86,0,0,0,.35,3.33,8.52,8.52,0,0,0,1.19,2.77,6.11,6.11,0,0,0,2,2,5.36,5.36,0,0,0,2.86.74,5.23,5.23,0,0,0,2.92-.76,9.09,9.09,0,0,0,2-1.69Zm26.68,4.18H215.18V81.09l1-.09a3.92,3.92,0,0,0,.94-.18,1.59,1.59,0,0,0,.92-.69,2.48,2.48,0,0,0,.3-1.27V65.57a2.64,2.64,0,0,0-.32-1.28,3.07,3.07,0,0,0-.9-1,4.1,4.1,0,0,0-1.22-.44,8.18,8.18,0,0,0-1.45-.23V61.23l7.69-.48.31.3V78.6a2.46,2.46,0,0,0,.29,1.27,1.76,1.76,0,0,0,.94.73,6.64,6.64,0,0,0,.95.32,6,6,0,0,0,1,.17v1.44Zm-2.78-30.27a3.16,3.16,0,0,1-.82,2.17,2.66,2.66,0,0,1-4,0,2.9,2.9,0,0,1-.83-2,3,3,0,0,1,.83-2.1,2.6,2.6,0,0,1,2-.89,2.8,2.8,0,0,1,2.87,2.79ZM248.78,72a5.39,5.39,0,0,1,1.39,1.81,5.88,5.88,0,0,1,.48,2.51,6.06,6.06,0,0,1-2.26,4.88,8.8,8.8,0,0,1-5.86,1.9,8.71,8.71,0,0,1-3.5-.68,9.31,9.31,0,0,1-2.29-1.24l-.44,1.42h-1.65l-.22-7.48H236a8.45,8.45,0,0,0,.75,2,9.48,9.48,0,0,0,1.39,2,7.86,7.86,0,0,0,2.06,1.62,5.69,5.69,0,0,0,2.71.66,5,5,0,0,0,3.27-1,3.33,3.33,0,0,0,1.15-2.72,3.18,3.18,0,0,0-.37-1.58A3.45,3.45,0,0,0,245.84,75a8.29,8.29,0,0,0-1.79-.91c-.71-.26-1.49-.53-2.36-.79-.69-.21-1.46-.49-2.3-.84a9.05,9.05,0,0,1-2.18-1.26,6.23,6.23,0,0,1-1.59-1.87,5.26,5.26,0,0,1-.62-2.62,5.85,5.85,0,0,1,2-4.48,7.56,7.56,0,0,1,5.32-1.83,11.29,11.29,0,0,1,2.61.32,10,10,0,0,1,2.18.79l.51-1.14h1.59l.33,6.92H248a6.87,6.87,0,0,0-2-3.76,5.21,5.21,0,0,0-3.74-1.45,4.24,4.24,0,0,0-2.84.89,2.74,2.74,0,0,0-1,2.16,3.5,3.5,0,0,0,.34,1.64,3,3,0,0,0,1,1.11,8.27,8.27,0,0,0,1.66.82q1,.39,2.49.87a21.66,21.66,0,0,1,2.74,1.06A8.86,8.86,0,0,1,248.78,72Zm30.53,5.47a11,11,0,0,1-3.66,4.1,9.24,9.24,0,0,1-5.28,1.53,10.79,10.79,0,0,1-4.6-.91,9.06,9.06,0,0,1-3.26-2.49A10.52,10.52,0,0,1,260.6,76a15.3,15.3,0,0,1-.63-4.43,13.2,13.2,0,0,1,.67-4.11,11.54,11.54,0,0,1,2-3.63,9.58,9.58,0,0,1,3.12-2.5,9.16,9.16,0,0,1,4.19-1,10,10,0,0,1,4.08.74,7.1,7.1,0,0,1,2.76,2,8.09,8.09,0,0,1,1.51,2.88,12.24,12.24,0,0,1,.5,3.6v1.44H264.36a16.81,16.81,0,0,0,.41,3.84,9,9,0,0,0,1.3,3,6.15,6.15,0,0,0,2.24,2,7,7,0,0,0,3.32.73,6.14,6.14,0,0,0,3.39-.91,9,9,0,0,0,2.74-3.26l1.55.94Zm-4.88-8.2a17.61,17.61,0,0,0-.21-2.62,7.87,7.87,0,0,0-.67-2.33,4.53,4.53,0,0,0-1.39-1.64,3.77,3.77,0,0,0-2.28-.63,4.74,4.74,0,0,0-3.85,1.9,8.84,8.84,0,0,0-1.67,5.32Zm37.46,13.27H301.23V81.09l1.11-.09a4.17,4.17,0,0,0,1-.18,1.54,1.54,0,0,0,.91-.69,2.3,2.3,0,0,0,.31-1.27V67.79a5.18,5.18,0,0,0-1.1-3.53A3.45,3.45,0,0,0,300.81,63a6.18,6.18,0,0,0-2.15.36,7.06,7.06,0,0,0-1.71.88,4.87,4.87,0,0,0-1.16,1.08,9.63,9.63,0,0,0-.63.93V78.65a2.19,2.19,0,0,0,.31,1.22,1.88,1.88,0,0,0,.93.73,3.92,3.92,0,0,0,1,.33,8,8,0,0,0,1.11.16v1.44H287.85V81.09l1-.09a4,4,0,0,0,.94-.18,1.57,1.57,0,0,0,.91-.69,2.39,2.39,0,0,0,.3-1.27V65.57a2.81,2.81,0,0,0-.32-1.36,2.66,2.66,0,0,0-.89-1,3.11,3.11,0,0,0-1-.38,9,9,0,0,0-1.23-.16V61.23l7.24-.48.31.3v3h.11c.35-.34.79-.76,1.32-1.25a12.72,12.72,0,0,1,1.5-1.19,8,8,0,0,1,2-.87,8.62,8.62,0,0,1,2.54-.35,5.58,5.58,0,0,1,4.65,1.93,8.1,8.1,0,0,1,1.5,5.14V78.68a2.45,2.45,0,0,0,.27,1.24,1.75,1.75,0,0,0,.91.73,5.31,5.31,0,0,0,.91.3,7,7,0,0,0,1.07.14v1.44Zm-3.86-32a8.69,8.69,0,0,1-.66,1.71,8,8,0,0,1-1.21,1.72,7.39,7.39,0,0,1-1.67,1.36,4,4,0,0,1-2.09.52,6.28,6.28,0,0,1-2.21-.36,13.35,13.35,0,0,1-1.63-.75c-.51-.29-1-.56-1.47-.79a3.38,3.38,0,0,0-1.53-.35,2.29,2.29,0,0,0-1,.18,2.69,2.69,0,0,0-.72.58,5.84,5.84,0,0,0-.7,1l-.66,1.17L291.17,56a10,10,0,0,1,.74-1.68,11.55,11.55,0,0,1,1.15-1.73,6.3,6.3,0,0,1,1.62-1.34,3.85,3.85,0,0,1,2-.55,5.65,5.65,0,0,1,2.13.36,15.9,15.9,0,0,1,1.65.77l1.41.79a2.8,2.8,0,0,0,1.41.32,4.1,4.1,0,0,0,1.43-.2,2,2,0,0,0,.85-.58,4.44,4.44,0,0,0,.59-.89c.15-.32.33-.74.55-1.25l1.35.5Zm33.78,21a14.22,14.22,0,0,1-.73,4.46A10.58,10.58,0,0,1,339,79.73a9.68,9.68,0,0,1-3.53,2.6,11.39,11.39,0,0,1-4.5.85,10.39,10.39,0,0,1-4-.77,10.14,10.14,0,0,1-3.33-2.26,10.72,10.72,0,0,1-2.28-3.57,12.49,12.49,0,0,1-.86-4.73,11.64,11.64,0,0,1,3-8.24,11,11,0,0,1,15.33-.17,11.11,11.11,0,0,1,3,8.11Zm-4.57,0a19.31,19.31,0,0,0-.33-3.45,10.66,10.66,0,0,0-1-3.1,5.92,5.92,0,0,0-1.85-2.16,4.71,4.71,0,0,0-2.81-.82,5,5,0,0,0-2.9.82,6.35,6.35,0,0,0-2,2.28,9.9,9.9,0,0,0-1,3,19,19,0,0,0-.29,3.3,20.42,20.42,0,0,0,.34,3.87,10.88,10.88,0,0,0,1.09,3.17,6.17,6.17,0,0,0,1.89,2.19,4.73,4.73,0,0,0,2.81.8,4.94,4.94,0,0,0,4.38-2.64,14,14,0,0,0,1.61-7.29ZM206.63,114.41c-.27,0-.64.08-1.1.16a4,4,0,0,0-1.12.31,1.46,1.46,0,0,0-.72.71,2.62,2.62,0,0,0-.21,1.09v1.85c0,1.35,0,2.26,0,2.73s0,.86.06,1.16A25.46,25.46,0,0,1,199,124a18.88,18.88,0,0,1-4.41.55,11.73,11.73,0,0,1-4.46-.87,11,11,0,0,1-3.76-2.44,11.63,11.63,0,0,1-2.57-3.89,13.16,13.16,0,0,1-1-5.12,13.91,13.91,0,0,1,.9-5.06,12.16,12.16,0,0,1,2.59-4.06,11.36,11.36,0,0,1,3.86-2.61,12.23,12.23,0,0,1,4.8-.94,11.52,11.52,0,0,1,3.56.49,13.52,13.52,0,0,1,2.68,1.18l.7-1.15h1.36l.16,8.36h-1.41a23.94,23.94,0,0,0-.88-2.72,9.66,9.66,0,0,0-1.36-2.4,6.31,6.31,0,0,0-2-1.7,6.23,6.23,0,0,0-2.87-.63,6.71,6.71,0,0,0-5.75,2.92,10.38,10.38,0,0,0-1.6,3.48A18.16,18.16,0,0,0,187,112a16.11,16.11,0,0,0,.56,4.29,10.58,10.58,0,0,0,1.61,3.47,7.88,7.88,0,0,0,2.64,2.37,7.48,7.48,0,0,0,3.6.85,8,8,0,0,0,2.74-.45,5,5,0,0,0,1.74-1,13.07,13.07,0,0,0,.15-1.77c0-.59,0-1.1,0-1.51V117a3.68,3.68,0,0,0-.2-1.25,1.31,1.31,0,0,0-.81-.8,5.08,5.08,0,0,0-1.52-.38c-.65-.09-1.15-.14-1.52-.16v-1.23h10.61v1.23ZM233,124h-6.51q-2.16-3.36-3.91-5.8t-3.79-5h-2.47v7.59a2.74,2.74,0,0,0,.18,1,1.26,1.26,0,0,0,.81.68,4.54,4.54,0,0,0,1.07.22,12.35,12.35,0,0,0,1.29.12V124H209.48v-1.2l1.19-.12a3.78,3.78,0,0,0,1.08-.22,1.39,1.39,0,0,0,.74-.64,2.12,2.12,0,0,0,.24-1.07V103.42a2.8,2.8,0,0,0-.18-1,1.2,1.2,0,0,0-.8-.69,5.92,5.92,0,0,0-1.11-.28,8.8,8.8,0,0,0-1.16-.16v-1.2h11.17a13.24,13.24,0,0,1,2.88.31,7.89,7.89,0,0,1,2.44,1,5.18,5.18,0,0,1,1.69,1.76,5.28,5.28,0,0,1,.63,2.63,6.6,6.6,0,0,1-.43,2.44A5,5,0,0,1,226.6,110a7.29,7.29,0,0,1-1.84,1.26,15,15,0,0,1-2.37.9q1.79,2.34,3,3.95c.79,1.06,1.76,2.36,2.91,3.88a7.72,7.72,0,0,0,1.36,1.5,7.41,7.41,0,0,0,1.2.78,4.3,4.3,0,0,0,1.11.34,9.64,9.64,0,0,0,1.1.13V124Zm-9-17.83a4.64,4.64,0,0,0-1.27-3.44,4.77,4.77,0,0,0-3.56-1.27h-2.89v10.26h2.23a5.49,5.49,0,0,0,3.92-1.49,5.37,5.37,0,0,0,1.57-4.06ZM257.48,124H247.41v-1.2a10.74,10.74,0,0,0,2.2-.34c.59-.16.88-.37.88-.62a1.87,1.87,0,0,0,0-.37,1.48,1.48,0,0,0-.1-.39l-2-5.35h-8.47c-.32.78-.58,1.46-.78,2s-.38,1.12-.53,1.62a11.84,11.84,0,0,0-.31,1.18,3.82,3.82,0,0,0-.08.74c0,.45.35.8,1.07,1a8.41,8.41,0,0,0,2.42.44V124h-9.1v-1.2a7.71,7.71,0,0,0,1.1-.19,3.88,3.88,0,0,0,1.1-.43,4.28,4.28,0,0,0,1.05-1,6.42,6.42,0,0,0,.73-1.38q1.83-4.49,4-10.11l3.92-10h1.36l8.07,20.62a4.25,4.25,0,0,0,.57,1.07,4.07,4.07,0,0,0,.91.79,3.51,3.51,0,0,0,1,.39,5,5,0,0,0,1.06.18V124Zm-9.75-9.77-3.67-9.27-3.6,9.27Zm.75-18.45-2.33,1.12-3.57,1.71-.53-.66c1-1,1.88-1.78,2.53-2.42s1.3-1.28,1.94-1.94a4,4,0,0,1,1-.82,2,2,0,0,1,1-.24,1.67,1.67,0,0,1,1.11.39,1.19,1.19,0,0,1,.46,1,1.51,1.51,0,0,1-.44,1.14A4.46,4.46,0,0,1,248.48,95.74ZM278.06,106h-1.28a8.49,8.49,0,0,0-1.49-2.84,3.7,3.7,0,0,0-2.18-1.67c-.35,0-.76-.08-1.25-.1s-1,0-1.64,0h-4.06V111h2.78a6,6,0,0,0,2-.25,3.25,3.25,0,0,0,1.19-.8,3.35,3.35,0,0,0,.62-1.16,6.87,6.87,0,0,0,.37-1.68h1.3v9.39h-1.3a7.61,7.61,0,0,0-.35-1.69,4.21,4.21,0,0,0-.64-1.36,2.51,2.51,0,0,0-1.29-.85,6.7,6.7,0,0,0-1.86-.23h-2.78v8.24a2.12,2.12,0,0,0,.22,1,1.59,1.59,0,0,0,.79.71,6.36,6.36,0,0,0,1.1.29,9,9,0,0,0,1.3.18V124H259.09v-1.2l1.36-.11a4.17,4.17,0,0,0,1.11-.19,1.49,1.49,0,0,0,.74-.65,2.22,2.22,0,0,0,.23-1V103.52a2.35,2.35,0,0,0-.19-1,1.43,1.43,0,0,0-.78-.7,5.52,5.52,0,0,0-1.24-.39,9.49,9.49,0,0,0-1.23-.2v-1.2h19v6ZM291.72,124H280.83v-1.2l1.33-.1a4.81,4.81,0,0,0,1.23-.2,1.81,1.81,0,0,0,.82-.6,2,2,0,0,0,.25-1V103.49a2.27,2.27,0,0,0-.19-1,1.52,1.52,0,0,0-.88-.66,8.91,8.91,0,0,0-1.29-.38,8.06,8.06,0,0,0-1.27-.21v-1.2h10.89v1.2a9.62,9.62,0,0,0-1.26.13,8.9,8.9,0,0,0-1.28.27,1.39,1.39,0,0,0-.87.66,2.23,2.23,0,0,0-.22,1v17.3a1.92,1.92,0,0,0,.25,1,1.68,1.68,0,0,0,.84.68,7.51,7.51,0,0,0,1.17.29,8.2,8.2,0,0,0,1.37.18Zm14.63.56a10.66,10.66,0,0,1-7.67-3.28,11.69,11.69,0,0,1-2.42-3.86,13.94,13.94,0,0,1-.9-5.15,14.37,14.37,0,0,1,.89-5.2,11.89,11.89,0,0,1,2.45-4,10.71,10.71,0,0,1,3.67-2.58,11.39,11.39,0,0,1,4.51-.91,10.85,10.85,0,0,1,3.24.44,11.76,11.76,0,0,1,2.76,1.23l.7-1.15H315l.15,8.53h-1.4a18.89,18.89,0,0,0-.82-2.71,10.47,10.47,0,0,0-1.27-2.46,6.16,6.16,0,0,0-1.95-1.8,5.09,5.09,0,0,0-2.57-.65,6.63,6.63,0,0,0-3.08.73,6.84,6.84,0,0,0-2.46,2.14A10.43,10.43,0,0,0,300,107.3a18.43,18.43,0,0,0-.55,4.7,14.31,14.31,0,0,0,.58,4.2,10.7,10.7,0,0,0,1.68,3.36,8.19,8.19,0,0,0,2.58,2.24,6.91,6.91,0,0,0,3.34.81,7.11,7.11,0,0,0,2.53-.43,6.94,6.94,0,0,0,2-1.14,8.59,8.59,0,0,0,1.5-1.68,9.54,9.54,0,0,0,1.06-2.06l1.27.61a10.46,10.46,0,0,1-3.89,5.08,10.62,10.62,0,0,1-5.76,1.53Z"/><path class="cls-3" d="M338.6,102.88a11.47,11.47,0,0,1,2.5,4,15,15,0,0,1,0,10.33,11.47,11.47,0,0,1-2.56,4,11,11,0,0,1-3.68,2.49,11.39,11.39,0,0,1-4.47.88,11.58,11.58,0,0,1-4.66-.93,10.73,10.73,0,0,1-3.67-2.61,11.72,11.72,0,0,1-2.42-4,14.15,14.15,0,0,1-.87-5,13.74,13.74,0,0,1,.92-5.2,12,12,0,0,1,2.54-4,11.12,11.12,0,0,1,3.72-2.53,11.89,11.89,0,0,1,9,0,10.85,10.85,0,0,1,3.68,2.51Zm-2.54,17a11.27,11.27,0,0,0,1.39-3.47,21.71,21.71,0,0,0-.05-8.84A11.12,11.12,0,0,0,336,104a6.76,6.76,0,0,0-2.35-2.23,6.38,6.38,0,0,0-3.24-.8,6.22,6.22,0,0,0-3.47.93,7.12,7.12,0,0,0-2.34,2.47,11.85,11.85,0,0,0-1.27,3.47,20.22,20.22,0,0,0-.42,4.18,19.53,19.53,0,0,0,.45,4.38,10.63,10.63,0,0,0,1.4,3.47A6.84,6.84,0,0,0,327,122.2a6.37,6.37,0,0,0,3.34.83,6.47,6.47,0,0,0,3.29-.84A6.59,6.59,0,0,0,336.06,119.83ZM195.29,139.08a2,2,0,0,1-.4,1.28,1.5,1.5,0,0,1-1.25.53,2,2,0,0,1-.93-.22,3.37,3.37,0,0,1-.74-.59,5.42,5.42,0,0,1-.63-.84c-.2-.32-.36-.57-.49-.76-.77,0-1.35.55-1.77,1.57a13.76,13.76,0,0,0-.62,4.86v1.7h4.33v1.62h-4.33v11.93a1.84,1.84,0,0,0,.23,1,1.36,1.36,0,0,0,.73.55,4.43,4.43,0,0,0,1.08.25l1.18.13v1.11h-8.86v-1.11l.81-.07a3.4,3.4,0,0,0,.72-.14,1.22,1.22,0,0,0,.71-.53,1.89,1.89,0,0,0,.23-1v-12.1H182v-1.62h3.33v-1.06a9.21,9.21,0,0,1,2-6.14,6.23,6.23,0,0,1,5-2.35,3.68,3.68,0,0,1,2.28.59,1.74,1.74,0,0,1,.77,1.43Zm14.4,9.6a2.9,2.9,0,0,1-.42,1.53,1.45,1.45,0,0,1-1.32.66,2,2,0,0,1-1.45-.48,1.49,1.49,0,0,1-.51-1.08,3.4,3.4,0,0,1,.06-.67c0-.21.08-.41.11-.61a3.81,3.81,0,0,0-1.88.64,5.55,5.55,0,0,0-1.82,1.82v9.67a1.84,1.84,0,0,0,.23,1,1.44,1.44,0,0,0,.73.55,4.34,4.34,0,0,0,1.1.26l1.16.12v1.11h-8.86v-1.11l.81-.07a3.51,3.51,0,0,0,.73-.14,1.23,1.23,0,0,0,.7-.53,1.8,1.8,0,0,0,.23-1V150.07a2.27,2.27,0,0,0-.25-1,2,2,0,0,0-.68-.81,2.52,2.52,0,0,0-.77-.29,5.7,5.7,0,0,0-1-.13v-1.09l5.59-.38.24.24v2.34h.08a7.6,7.6,0,0,1,2.36-2.07,5,5,0,0,1,2.37-.71,2.3,2.3,0,0,1,1.74.69,2.54,2.54,0,0,1,.68,1.85Zm19.05,10.57a8.57,8.57,0,0,1-2.83,3.16,7.15,7.15,0,0,1-4.07,1.18,8.41,8.41,0,0,1-3.56-.7,7,7,0,0,1-2.51-1.92,8.31,8.31,0,0,1-1.48-2.83,12,12,0,0,1-.48-3.42,10.17,10.17,0,0,1,.51-3.18,9.13,9.13,0,0,1,1.53-2.81,7.48,7.48,0,0,1,2.41-1.92,7,7,0,0,1,3.23-.74,7.75,7.75,0,0,1,3.16.58,5.52,5.52,0,0,1,2.13,1.56,6.42,6.42,0,0,1,1.17,2.23,9.81,9.81,0,0,1,.38,2.77v1.12H217.2a12.81,12.81,0,0,0,.31,3,7,7,0,0,0,1,2.35,4.79,4.79,0,0,0,1.74,1.54,5.5,5.5,0,0,0,2.56.56,4.77,4.77,0,0,0,2.62-.7,7.11,7.11,0,0,0,2.11-2.52l1.2.73ZM225,152.92a13.38,13.38,0,0,0-.16-2,6.11,6.11,0,0,0-.52-1.8,3.37,3.37,0,0,0-1.07-1.26,3,3,0,0,0-1.76-.49,3.66,3.66,0,0,0-3,1.47,6.77,6.77,0,0,0-1.29,4.11Zm23.33,6.33a8.57,8.57,0,0,1-2.83,3.16,7.15,7.15,0,0,1-4.07,1.18,8.41,8.41,0,0,1-3.56-.7,6.92,6.92,0,0,1-2.51-1.92,8.14,8.14,0,0,1-1.48-2.83,12,12,0,0,1-.48-3.42,10.17,10.17,0,0,1,.51-3.18,9.13,9.13,0,0,1,1.53-2.81,7.48,7.48,0,0,1,2.41-1.92,7,7,0,0,1,3.23-.74,7.75,7.75,0,0,1,3.16.58,5.56,5.56,0,0,1,2.12,1.56,6.27,6.27,0,0,1,1.18,2.23,9.81,9.81,0,0,1,.38,2.77v1.12H236.76a12.81,12.81,0,0,0,.31,3,7,7,0,0,0,1,2.35,4.79,4.79,0,0,0,1.74,1.54,5.5,5.5,0,0,0,2.56.56A4.77,4.77,0,0,0,245,161a7.11,7.11,0,0,0,2.11-2.52l1.2.73Zm-3.77-6.33a13.38,13.38,0,0,0-.16-2,6.11,6.11,0,0,0-.52-1.8,3.31,3.31,0,0,0-1.08-1.26,2.9,2.9,0,0,0-1.75-.49,3.67,3.67,0,0,0-3,1.47,6.84,6.84,0,0,0-1.28,4.11Zm16.27,10.24h-8.2v-1.11l.84-.08a3.87,3.87,0,0,0,.73-.13,1.27,1.27,0,0,0,.72-.53,1.89,1.89,0,0,0,.23-1V141.09a2.48,2.48,0,0,0-.26-1.14,2.4,2.4,0,0,0-.69-.84,3.61,3.61,0,0,0-1.13-.36,8.59,8.59,0,0,0-1.31-.2v-1.09l6.33-.38.24.25v22.8a1.84,1.84,0,0,0,.22,1,1.35,1.35,0,0,0,.71.58,3.85,3.85,0,0,0,.74.26,8.24,8.24,0,0,0,.83.12v1.11Zm20.72-.31c-.53.19-1,.35-1.4.47a5.25,5.25,0,0,1-1.38.18,3.36,3.36,0,0,1-2.12-.62,2.79,2.79,0,0,1-1-1.79h-.11a8.48,8.48,0,0,1-2.38,1.85,6.77,6.77,0,0,1-3.05.64,4.33,4.33,0,0,1-3.11-1.15,3.89,3.89,0,0,1-1.23-3,5,5,0,0,1,.28-1.72,4,4,0,0,1,.82-1.37,4.13,4.13,0,0,1,1.12-.9,9.7,9.7,0,0,1,1.32-.63c.51-.19,1.54-.55,3.1-1.07a23,23,0,0,0,3.17-1.21v-1.67a7.47,7.47,0,0,0-.09-.84,3.47,3.47,0,0,0-.41-1.17,3.11,3.11,0,0,0-1-1.09,2.89,2.89,0,0,0-1.77-.47,3.86,3.86,0,0,0-1.45.27,2.61,2.61,0,0,0-.95.54,4,4,0,0,0,.17,1,5,5,0,0,1,.16,1.21,1.45,1.45,0,0,1-.54,1.08,2.16,2.16,0,0,1-1.49.49,1.41,1.41,0,0,1-1.25-.6,2.35,2.35,0,0,1-.41-1.34,2.41,2.41,0,0,1,.56-1.49,5.37,5.37,0,0,1,1.44-1.25,7.65,7.65,0,0,1,1.86-.81,7.26,7.26,0,0,1,2.13-.33,14.14,14.14,0,0,1,2.5.2,4.56,4.56,0,0,1,1.93.83,3.91,3.91,0,0,1,1.32,1.69,7.24,7.24,0,0,1,.45,2.76c0,1.61,0,3-.05,4.27s-.05,2.6-.05,4.07a2.06,2.06,0,0,0,.23,1,1.82,1.82,0,0,0,.71.66,1.75,1.75,0,0,0,.81.17l1.13,0ZM275.57,154c-1,.28-1.81.55-2.54.82a9.81,9.81,0,0,0-2,1,4.57,4.57,0,0,0-1.35,1.35,3.4,3.4,0,0,0-.5,1.86,2.61,2.61,0,0,0,.75,2.06,2.71,2.71,0,0,0,1.88.65,3.91,3.91,0,0,0,2.13-.58,6,6,0,0,0,1.55-1.37l.1-5.81Zm28.87,9.2H296.2v-1.11l.86-.07a3.54,3.54,0,0,0,.78-.14,1.22,1.22,0,0,0,.71-.53,1.8,1.8,0,0,0,.23-1v-8.55a4,4,0,0,0-.84-2.72,2.65,2.65,0,0,0-2.06-1,4.84,4.84,0,0,0-1.65.27,5.94,5.94,0,0,0-1.33.69,3.83,3.83,0,0,0-.9.83c-.22.3-.38.54-.48.71v9.56a1.68,1.68,0,0,0,.24.94,1.46,1.46,0,0,0,.71.57,3.25,3.25,0,0,0,.78.26c.28,0,.56.09.86.12v1.11h-8.23v-1.11l.8-.07a3.51,3.51,0,0,0,.73-.14,1.25,1.25,0,0,0,.71-.53,1.89,1.89,0,0,0,.23-1V150.07a2.14,2.14,0,0,0-.25-1,2,2,0,0,0-.69-.79,2.33,2.33,0,0,0-.77-.29,5.45,5.45,0,0,0-.95-.13v-1.09l5.59-.38.24.24v2.34h.08c.27-.27.62-.59,1-1a10.3,10.3,0,0,1,1.16-.92,6.47,6.47,0,0,1,1.5-.67,6.7,6.7,0,0,1,2-.27,4.26,4.26,0,0,1,3.58,1.49,6.25,6.25,0,0,1,1.17,4v8.64a1.86,1.86,0,0,0,.21.95,1.24,1.24,0,0,0,.7.57,4,4,0,0,0,.7.23,5.82,5.82,0,0,0,.83.11v1.11Zm12.52.43a7.16,7.16,0,0,1-5.71-2.39,10.68,10.68,0,0,1-1.51-9.69,9.23,9.23,0,0,1,1.61-2.78,7.64,7.64,0,0,1,2.53-1.92,7.43,7.43,0,0,1,3.3-.74,6.42,6.42,0,0,1,4,1.18,3.77,3.77,0,0,1,1.56,3.19,2.78,2.78,0,0,1-.41,1.49,1.47,1.47,0,0,1-1.35.65,2.22,2.22,0,0,1-1.56-.51,1.48,1.48,0,0,1-.55-1.13,6.68,6.68,0,0,1,.2-1.56,7.5,7.5,0,0,0,.24-1.17,1.49,1.49,0,0,0-.91-.69,4.61,4.61,0,0,0-1.31-.18,3.69,3.69,0,0,0-1.56.34,4,4,0,0,0-1.43,1.27,6.71,6.71,0,0,0-1,2.28,13.14,13.14,0,0,0-.39,3.42,8.67,8.67,0,0,0,1.4,5.11,4.35,4.35,0,0,0,3.69,2,4.68,4.68,0,0,0,2.78-.79,7.71,7.71,0,0,0,2.06-2.38l1.1.71a8.65,8.65,0,0,1-3,3.15,7,7,0,0,1-3.8,1.16Zm25.7-4.34a8.49,8.49,0,0,1-2.83,3.16,7.15,7.15,0,0,1-4.07,1.18,8.41,8.41,0,0,1-3.56-.7,7,7,0,0,1-2.51-1.92,8.31,8.31,0,0,1-1.48-2.83,12,12,0,0,1-.48-3.42,9.9,9.9,0,0,1,.52-3.18,8.92,8.92,0,0,1,1.53-2.81,7.37,7.37,0,0,1,2.41-1.92,7,7,0,0,1,3.23-.74,7.7,7.7,0,0,1,3.15.58,5.52,5.52,0,0,1,2.13,1.56,6.42,6.42,0,0,1,1.17,2.23,9.81,9.81,0,0,1,.38,2.77v1.12H331.12a13.38,13.38,0,0,0,.31,3,7,7,0,0,0,1,2.35,4.68,4.68,0,0,0,1.73,1.54,5.52,5.52,0,0,0,2.56.56,4.75,4.75,0,0,0,2.62-.7,7,7,0,0,0,2.12-2.52l1.19.73Zm-3.77-6.33a13.38,13.38,0,0,0-.16-2,6.11,6.11,0,0,0-.52-1.8,3.37,3.37,0,0,0-1.07-1.26,2.93,2.93,0,0,0-1.76-.49,3.66,3.66,0,0,0-3,1.47,6.84,6.84,0,0,0-1.29,4.11Z"/></g></g></g></svg>