<svg id="Capa_1" data-name="Capa 1" xmlns="http://www.w3.org/2000/svg" viewBox="0 0 210 210"><defs><style>.cls-1{fill:#fff;}.cls-2{fill:#42929d;}.cls-2,.cls-3{fill-rule:evenodd;}.cls-3{fill:#e77817;}</style></defs><title>Marca - Icono (with Fondo)</title><circle class="cls-1" cx="105" cy="105" r="105"/><g id="Capa_2" data-name="Capa 2"><g id="Capa_1-2" data-name="Capa 1-2"><g id="Capa_1-3" data-name="Capa 1-3"><path class="cls-2" d="M-67.33,118.59C-222.54,157.69-257.74-46.33-89.9-32.26l12-6.92h12.63V-9.44h-6.57c-89.29-73.74-153.9,132.86-1.53,125l6,3Z" transform="translate(220.13 62.8)"/><path class="cls-2" d="M-59.3,51.51q-1.41-2-2.85-3.81l-.72.94h0c1.19.89,2.38,1.84,3.58,2.87Zm-3.51-4.69c-20.44-25.93-42.35-33.39-65.93-19.62l.67.94.3.42.78,1.07.28.38.64.86.5.65.07.09.29.38.13.16.71.91.05.07.3.37.13.16.75.94h0l.3.36.54.65v.07l.3.35.3.35.54.63.06.06.29.35.6.66.68.76.23.25.89,1,.11.12.19.2.74.75.32.32.87.87.12.12c.33.31.66.63,1,.93l.06.06h0c.73.68,1.46,1.34,2.19,2h0c.36.31.72.62,1.08.91h0c.71.58,1.42,1.13,2.13,1.66,14.3-10.82,29.41-11.69,45.49-.2h0l.3-.22h.08l.26-.2h.07l.28-.21h0Zm-88.55,2.85,18.41,25.58c1.42-2.26,2.86-4.41,4.3-6.47M-130,68h0c-1.59-1-3.18-2-4.79-3.19l-.11-.08-1-.76-.35-.26-1.47-1.09h0l-.35-.28-.36-.28-.5-.41-1-.82-.62-.54-1-.82-.44-.38-1.1-1-.54-.5c-.42-.39-.85-.78-1.27-1.19l-.23-.22L-146.3,55l-.57-.57L-148,53.3l-.29-.29-1.29-1.36-.28-.29-1.46-1.59h0l21.34,18.3Z" transform="translate(220.13 62.8)"/><path class="cls-3" d="M-59.58,44.25c-28.12,39-57.09,39.88-91.4.92l18.09-19.28C-110.52,61.2-86.59,67.38-59.58,44.25Z" transform="translate(220.13 62.8)"/></g></g></g></svg>